<svg xmlns="http://www.w3.org/2000/svg" width="628" height="213" viewBox="0 0 628 213" preserveAspectRatio="none"><defs><style>.cls-1{fill:#ff3900;fill-rule:evenodd}</style></defs><path class="cls-1" d="M131.893 164.586h69.373c-8.429-10.537-6.406-47.289-6.406-60.27v-62.63c-17.617 3.288-36.752 8.092-63.81 8.092 6.322 4.636 8.261 31.1 8.261 54.538 0 13.484.674 49.733-7.418 60.27zm77.03 0H278.3c-8.429-10.537-6.406-47.289-6.406-60.27v-62.63c-17.617 3.288-36.752 8.092-63.81 8.092 6.322 4.636 8.261 31.1 8.261 54.538-.004 13.484.67 49.733-7.422 60.27zm98.715 1.487c12.672 0 23.024-8.329 23.024-18.205 0-10.114-10.352-18.264-23.024-18.264s-23.024 8.15-23.024 18.264c0 9.876 10.352 18.205 23.024 18.205zm30.142-1.487h69.374c-8.43-10.537-6.407-47.289-6.407-60.27v-62.63c-17.617 3.288-36.752 8.092-63.81 8.092 6.322 4.636 8.261 31.1 8.261 54.538.002 13.484.674 49.733-7.418 60.27zm77.03 0h69.374c-8.43-10.537-6.407-47.289-6.407-60.27v-62.63c-17.617 3.288-36.752 8.092-63.81 8.092 6.322 4.636 8.261 31.1 8.261 54.538 0 13.484.672 49.733-7.418 60.27z"/><path class="cls-1" d="M559.247 41.919V70.44H568c-4.942-5.49-5.4-15.522-5.4-18.025 2.229 12.431 9.086 18.93 15.291 18.93 8.729 0 11.968-6.2 12.031-15.565.084-12.115-5.132-14.134-8.9-14.134-3.386 0-6.71 2.755-6.71 7.4a6.045 6.045 0 1012.052.126 3.49 3.49 0 01.589 2.124c0 2.692-2.019 6.415-7.677 6.226-10.243-.337-16.784-12.178-16.784-15.607h-3.239zm-.526 46.769c0 10.432 6.983 16.469 15.606 16.469 8.6 0 15.586-6.037 15.586-16.469 0-10.454-6.983-16.448-15.586-16.448-8.627 0-15.606 5.995-15.606 16.448zm2.692-.084c0-2.755 5.553-2.545 12.872-2.545 7.278 0 12.957-.21 12.957 2.545 0 3.029-5.679 2.671-12.957 2.671-7.319 0-12.872.358-12.872-2.675zm-2.166 17.3v28.521H568c-4.942-5.49-5.4-15.523-5.4-18.026 2.229 12.431 9.086 18.93 15.291 18.93 8.729 0 11.968-6.2 12.031-15.564.084-12.115-5.132-14.135-8.9-14.135-3.386 0-6.71 2.756-6.71 7.4a6.045 6.045 0 1012.052.126 3.492 3.492 0 01.589 2.125c0 2.692-2.019 6.415-7.677 6.225-10.243-.336-16.784-12.178-16.784-15.606h-3.239zm0 30.594v28.521H568c-4.942-5.49-5.4-15.522-5.4-18.025 2.229 12.43 9.086 18.929 15.291 18.929 8.729 0 11.968-6.2 12.031-15.564.084-12.115-5.132-14.134-8.9-14.134-3.386 0-6.71 2.755-6.71 7.4a6.045 6.045 0 1012.052.126 3.492 3.492 0 01.589 2.125c0 2.692-2.019 6.415-7.677 6.226-10.243-.337-16.784-12.179-16.784-15.607h-3.239z"/><path class="cls-1" d="M503.121 41.2v27.96c.555-.589 1-1.7 4.469-2.148a246.2 246.2 0 0124.942-.693c-.346 5.958-1.836 10.219-3.707 11.778h12.194c-1.836-1.559-3.256-5.751-3.672-11.709 4.088.139 8.487.346 10.982.624.069 4.711-2.841 13.926-6.963 17.321H552.8V41.2c-.589.485-1 1.663-4.468 2.044-8.8.97-31.94 1.039-40.739 0-3.467-.411-3.917-1.554-4.472-2.044zm0 42.671V111.8c.555-.485 1.351-1.247 4.227-2.009 3.914-.97 15.658-.727 20.265-.8l-24.492 6.617v26.154c5.439-5.508 12.645-7.274 17.286-9.041 6.2-2.356 5.127-7.587 5.127-11.293 0-7.171 1.525-7.483 2.425-7.483 0 9.492 1.732 19.711 12.645 19.711 13.822 0 12.193-17.424 12.193-30.346V83.875c-.589.485-1 1.628-4.468 2.044-4.608.52-13.13.8-21.478.762-7.587-.035-15.069-.242-19.261-.762-3.464-.419-3.914-1.559-4.469-2.044zm29.065 25.185c1.7.034 3.741.034 5.785 0l10.5-.035c0 2.979-3.014 5.231-7.863 5.231-3.608.004-8.422-1.382-8.422-5.192zM503.121 139.5v27.956c.555-.589 1-1.7 4.469-2.148 8.8-.97 31.94-.97 40.739 0 3.464.45 3.879 1.559 4.468 2.148V139.5c-.589.485-1 1.663-4.468 2.044-8.8.97-31.94 1.039-40.739 0-3.464-.42-3.914-1.563-4.469-2.044z"/><path class="cls-1" d="M539.192.528h-9.824v21.095h9.824c7.624 0 12.506-4.1 12.506-10.547S546.816.528 539.192.528zm-.092 19.618h-8.166V1.974h8.166c6.389 0 11 3.194 11 9.1s-4.61 9.072-11 9.072zm38.869 1.477h1.748L567.905.528h-1.748l-11.813 21.095h1.748l3.465-6.238h14.917zm-17.629-7.684L567 1.974l6.69 11.964h-13.35zM603.133.529h-22.15v1.415h10.277v19.679h1.567V1.944h10.307V.528zm5.951 19.618v-8.529h15.429v-1.477h-15.428V1.974h17.991V.528h-19.558v21.095h19.859v-1.477h-18.292z"/><path class="cls-1" d="M94.675 131.092c0 5.255 2.9 8.352 7.413 8.352s7.413-3.1 7.413-8.352-2.9-8.352-7.413-8.352-7.413 3.097-7.413 8.352zm.979 0c0-4.416 2.338-7.293 6.434-7.293s6.434 2.877 6.434 7.293c0 4.4-2.338 7.273-6.434 7.273s-6.434-2.877-6.434-7.273zm13.427 21.4v-9.151H95.095v1.039h5.375v8.112c0 3.177 1.638 5.195 4.316 5.195 2.657-.002 4.295-2.02 4.295-5.197zm-7.652-.06v-8.052h6.693v8.052c0 2.6-1.2 4.2-3.336 4.2-2.158-.006-3.357-1.604-3.357-4.202zm-5.355 9.768h5.654v10.23h.979V162.2h5.415v11.929h.959v-12.97H95.095v13.167h.979V162.2zm13.007 29.288H96.633l12.448-12.248v-1.159H95.095v1.019h12.668l-12.668 12.486v.919h13.986v-1.019zm-42.986-64.045v1.243h16.738v-.956a11.4 11.4 0 01-2.893-5.572h-1.124a10.4 10.4 0 002.463 5.285H66.095zm8.943 18.187c.167 2.343 1.435 4.83 3.874 4.83 2.774 0 4.424-3.706 4.424-8.225s-1.65-8.2-4.424-8.2c-2.439 0-3.706 2.487-3.874 4.83-.215-2.319-1.435-5.476-4.448-5.476-2.989 0-5 3.563-5 8.848s2.009 8.871 5 8.871c3.01-.002 4.232-3.159 4.448-5.478zm3.85-10.33c2.224 0 3.348 3.228 3.348 6.935 0 3.73-1.124 6.958-3.348 6.958-2.463 0-3.4-3.228-3.4-6.958.004-3.707.937-6.935 3.399-6.935zm-12.195 6.935c0-4.52 1.53-7.556 3.874-7.556 2.582 0 3.9 3.036 3.9 7.556s-1.315 7.556-3.9 7.556c-2.416 0-3.875-3.037-3.875-7.556zm10.688 18.916a.958.958 0 10.957-1 .942.942 0 00-.957 1zm-11.477 0a.958.958 0 10.956-1 .942.942 0 00-.96 1zm-.311 19.5c0 6.05 3.491 9.517 8.871 9.517s8.871-3.467 8.871-9.517-3.491-9.517-8.871-9.517-8.871 3.473-8.871 9.522zm1.172 0c0-5.045 2.726-8.249 7.7-8.249s7.7 3.2 7.7 8.249c0 5.022-2.726 8.226-7.7 8.226s-7.701-3.199-7.701-8.221zm-1.172 22.469c0 6.05 3.491 9.517 8.871 9.517s8.871-3.467 8.871-9.517-3.491-9.517-8.871-9.517-8.871 3.468-8.871 9.517zm1.172 0c0-5.045 2.726-8.249 7.7-8.249s7.7 3.2 7.7 8.249c0 5.022-2.726 8.226-7.7 8.226s-7.701-3.204-7.701-8.226z"/><path class="cls-1" d="M37.615 130.413c.32-3.5.839-6.414 2.777-6.414 2.058 0 3 3.217 2.977 5.914a8.007 8.007 0 01-2.158 5.995l.679.819a9.456 9.456 0 002.458-6.854c0-3.6-1.419-6.953-3.976-6.953-2.637 0-3.4 3.517-3.736 7.133-.38 4.016-.919 6.354-2.857 6.354-1.9 0-3.277-2.138-3.277-5.994a9.386 9.386 0 012.757-7.233l-.739-.76a10.653 10.653 0 00-3 7.953c0 4.576 1.878 7.093 4.316 7.093 2.62 0 3.419-2.877 3.779-7.053zm6.314 23.314v-14.686h-.939v6.813H29.942v1.04H42.99v6.833h.939zm-13.987 16.6v1.159l13.987-7.833v-1.158l-13.987-7.833v1.159l4.136 2.3v9.89zm5.1-11.689l7.932 4.416-7.932 4.436v-8.852zm-5.1 30.588l5.635-4.975c.2 2.737 1.718 4.535 4.176 4.535 2.617 0 4.176-2.078 4.176-5.195v-9.171H29.942v1.059h5.615v7.493l-5.615 4.9v1.359zm6.574-13.767h6.454v8.072c0 2.578-1.139 4.2-3.217 4.2-2.1 0-3.237-1.618-3.237-4.2v-8.072zm7.413 30.049v-14.687h-.939v6.813H29.942v1.039H42.99v6.834h.939zM.942 127.443v1.243H17.68v-.956a11.4 11.4 0 01-2.893-5.572h-1.124a10.4 10.4 0 002.463 5.285H.942zm17.24 14.1c0-5.045-2.32-8.345-5.548-8.345-3.706 0-5.4 3.348-5.4 7.58 0 3.921 1.626 7.2 3.969 8.776a9.62 9.62 0 01-1.889.167c-5.117 0-7.771-3.324-7.771-8.226a8.206 8.206 0 012.7-6.6l-.743-.982C1.54 135.587.44 138.1.44 141.541c0 5.978 3.515 9.469 8.871 9.469s8.872-3.491 8.872-9.469zm-9.876-.55c0-3.8 1.363-6.528 4.328-6.528 2.7 0 4.448 2.822 4.448 7.078 0 3.85-1.626 6.695-4.806 7.748a10.088 10.088 0 01-3.969-8.3zm3.922 20.064a.958.958 0 10.956-1 .942.942 0 00-.955.998zm-11.478 0a.942.942 0 00.956 1 1.005 1.005 0 000-2.008.942.942 0 00-.955 1.006zM.44 180.56c0 6.05 3.491 9.517 8.871 9.517s8.871-3.467 8.871-9.517-3.491-9.517-8.871-9.517S.44 174.511.44 180.56zm1.172 0c0-5.045 2.726-8.249 7.7-8.249s7.7 3.2 7.7 8.249c0 5.022-2.726 8.226-7.7 8.226s-7.7-3.204-7.7-8.226zM.44 203.024c0 6.05 3.491 9.517 8.871 9.517s8.871-3.467 8.871-9.517-3.491-9.517-8.871-9.517S.44 196.975.44 203.024zm1.172 0c0-5.045 2.726-8.249 7.7-8.249s7.7 3.2 7.7 8.249c0 5.022-2.726 8.226-7.7 8.226s-7.7-3.204-7.7-8.226z"/></svg>